<svg xmlns="http://www.w3.org/2000/svg" width="256" height="256" viewBox="0 0 100 100"><rect width="100" height="100" rx="20" fill="#7e22ce"></rect><path d="M48.29 69.13L48.29 69.13Q53.51 69.13 55.94 67.10Q58.37 65.08 58.37 62.02L58.37 62.02Q58.37 59.22 56.48 57.56Q54.59 55.89 50.72 54.72L50.72 54.72L44.96 52.92Q41.54 51.84 38.75 50.49Q35.96 49.14 33.98 47.30Q32 45.45 30.92 42.98Q29.84 40.51 29.84 37.09L29.84 37.09Q29.84 29.80 35.33 25.52Q40.82 21.24 50.36 21.24L50.36 21.24Q54.14 21.24 57.33 21.83Q60.53 22.41 62.87 23.45Q65.21 24.48 66.52 26.02Q67.82 27.55 67.82 29.44L67.82 29.44Q67.82 31.23 66.97 32.54Q66.11 33.84 64.85 34.66L64.85 34.66Q62.69 33.13 59.13 32Q55.58 30.88 51.35 30.88L51.35 30.88Q46.67 30.88 44.24 32.54Q41.81 34.20 41.81 37.09L41.81 37.09Q41.81 39.42 43.47 40.69Q45.14 41.95 48.74 43.12L48.74 43.12L53.87 44.73Q61.70 47.08 66.02 51.13Q70.34 55.17 70.34 62.10L70.34 62.10Q70.34 65.80 68.90 68.86Q67.46 71.91 64.72 74.12Q61.97 76.33 57.88 77.54Q53.78 78.75 48.56 78.75L48.56 78.75Q44.42 78.75 40.95 78.03Q37.49 77.31 34.97 76.10Q32.45 74.88 31.05 73.22Q29.66 71.55 29.66 69.58L29.66 69.58Q29.66 67.50 30.88 66.02Q32.09 64.53 33.71 63.81L33.71 63.81Q35.96 65.80 39.65 67.46Q43.34 69.13 48.29 69.13Z" fill="#fff"></path></svg>